<?xml version="1.0" encoding="utf-8"?>
<!-- Generator: Adobe Illustrator 25.0.1, SVG Export Plug-In . SVG Version: 6.00 Build 0)  -->
<svg version="1.1" id="圖層_1" xmlns="http://www.w3.org/2000/svg" xmlns:xlink="http://www.w3.org/1999/xlink" x="0px" y="0px"
	 viewBox="0 0 48 48" style="enable-background:new 0 0 48 48;" xml:space="preserve">
<style type="text/css">
	.st0{fill:#7F1A1E;}
	.st1{fill:#3E3A39;}
</style>
<g>
	<g>
		<path class="st0" d="M1.99,27.64c0.19,0.26,0.44,0.47,0.74,0.64c0.3,0.2,0.66,0.3,1.06,0.3C4.33,28.59,4.85,28.4,5.34,28
			c0.24-0.2,0.43-0.46,0.56-0.78c0.14-0.31,0.21-0.7,0.21-1.17v-9.37h2.04v9.57c-0.02,1.4-0.47,2.48-1.33,3.24
			c-0.85,0.78-1.84,1.18-2.97,1.19c-1.57-0.04-2.76-0.64-3.55-1.8L1.99,27.64z"/>
		<path class="st1" d="M15.87,29.68h-0.04c-0.18,0.34-0.45,0.58-0.83,0.74c-0.37,0.16-0.88,0.25-1.53,0.25
			c-1.07-0.01-1.89-0.3-2.47-0.88c-0.61-0.56-0.91-1.27-0.91-2.14c0-0.83,0.26-1.52,0.79-2.07c0.53-0.56,1.3-0.84,2.32-0.86h2.66
			v-1.04c0.01-0.87-0.64-1.3-1.96-1.27c-0.48,0-0.86,0.05-1.13,0.15c-0.29,0.12-0.52,0.33-0.68,0.61l-1.51-1.19
			c0.73-0.99,1.81-1.46,3.23-1.44c1.2-0.01,2.17,0.22,2.88,0.7c0.72,0.5,1.08,1.35,1.1,2.55v6.75h-1.92V29.68z M15.87,26.37h-2.31
			c-1.12,0.03-1.68,0.42-1.66,1.19c0,0.34,0.14,0.62,0.43,0.86c0.28,0.26,0.74,0.39,1.38,0.39c0.81,0.01,1.38-0.09,1.71-0.3
			c0.3-0.21,0.45-0.69,0.45-1.43V26.37z"/>
		<path class="st1" d="M20.88,27.54c0.78,0.85,1.79,1.27,3.03,1.27c0.55,0,1.01-0.11,1.36-0.33c0.35-0.22,0.53-0.53,0.53-0.93
			c0-0.36-0.1-0.6-0.31-0.74c-0.22-0.15-0.5-0.23-0.86-0.24l-1.7-0.15c-0.81-0.08-1.46-0.36-1.97-0.84
			c-0.52-0.47-0.78-1.13-0.79-1.97c0.01-1.02,0.36-1.78,1.04-2.29c0.66-0.51,1.51-0.76,2.53-0.76c0.44,0,0.84,0.03,1.19,0.09
			c0.35,0.06,0.68,0.15,0.99,0.27c0.59,0.25,1.12,0.58,1.59,1l-1.19,1.44c-0.37-0.28-0.76-0.5-1.17-0.68
			c-0.41-0.16-0.88-0.24-1.41-0.24c-0.6,0-1.03,0.11-1.27,0.33c-0.25,0.22-0.38,0.51-0.38,0.86c-0.01,0.22,0.08,0.42,0.29,0.58
			c0.18,0.18,0.51,0.3,0.98,0.35l1.59,0.12c1,0.08,1.72,0.39,2.16,0.93c0.41,0.53,0.62,1.21,0.62,2.03
			c-0.01,0.96-0.39,1.7-1.13,2.22c-0.74,0.53-1.68,0.81-2.83,0.82c-1.56,0-2.97-0.59-4.22-1.77L20.88,27.54z"/>
		<path class="st1" d="M29.48,25.61c0-1.04,0.08-1.84,0.25-2.4c0.17-0.55,0.44-1.01,0.79-1.38c0.26-0.33,0.63-0.62,1.11-0.88
			c0.47-0.25,1.07-0.38,1.8-0.39c0.76,0.01,1.37,0.14,1.84,0.39c0.46,0.26,0.82,0.56,1.07,0.89c0.38,0.37,0.65,0.83,0.81,1.38
			c0.15,0.56,0.23,1.36,0.23,2.4c0,1.04-0.08,1.83-0.23,2.38c-0.16,0.55-0.43,1.02-0.81,1.42c-0.12,0.15-0.27,0.29-0.45,0.43
			c-0.16,0.16-0.37,0.3-0.62,0.41c-0.47,0.27-1.08,0.42-1.83,0.43c-0.73-0.01-1.33-0.16-1.8-0.43c-0.47-0.25-0.84-0.53-1.11-0.84
			c-0.36-0.4-0.62-0.87-0.79-1.42C29.56,27.44,29.48,26.65,29.48,25.61z M35.45,25.63c0-0.71-0.03-1.22-0.09-1.55
			c-0.06-0.31-0.19-0.59-0.38-0.82c-0.14-0.22-0.35-0.4-0.63-0.53c-0.27-0.13-0.57-0.2-0.92-0.2c-0.33,0-0.63,0.07-0.91,0.2
			c-0.26,0.13-0.48,0.3-0.65,0.53c-0.17,0.24-0.29,0.51-0.36,0.82c-0.07,0.33-0.11,0.83-0.11,1.53c0,0.69,0.04,1.19,0.11,1.51
			c0.07,0.32,0.19,0.61,0.36,0.86c0.17,0.19,0.38,0.36,0.65,0.51c0.28,0.14,0.58,0.21,0.91,0.21c0.35,0,0.66-0.07,0.92-0.21
			c0.28-0.15,0.49-0.32,0.63-0.51c0.19-0.25,0.32-0.54,0.38-0.86C35.42,26.8,35.45,26.3,35.45,25.63z"/>
		<path class="st1" d="M39.71,20.67h1.92v1.05h0.04c0.63-0.78,1.46-1.17,2.49-1.17c0.79,0,1.52,0.29,2.18,0.87
			c0.65,0.58,0.99,1.44,1.02,2.57v6.57h-1.92v-5.89c0-0.69-0.18-1.22-0.54-1.58c-0.35-0.37-0.8-0.55-1.36-0.55
			c-0.55,0-1.01,0.18-1.37,0.55c-0.36,0.36-0.54,0.89-0.54,1.58v5.89h-1.92V20.67z"/>
	</g>
	<circle class="st0" cx="30.9" cy="17.73" r="1.22"/>
	<circle class="st0" cx="36.07" cy="17.73" r="1.22"/>
</g>
</svg>
